<svg width="96" height="20" viewBox="0 0 96 20" fill="none" xmlns="http://www.w3.org/2000/svg">
<path d="M13.608 2.152V5.44H9.144V19H5.04V5.44H0.576V2.152H13.608ZM15.2117 12.376C15.2117 11.032 15.4837 9.856 16.0277 8.848C16.5717 7.824 17.3157 7.032 18.2597 6.472C19.2197 5.912 20.2837 5.632 21.4517 5.632C22.6037 5.632 23.6037 5.88 24.4517 6.376C25.2997 6.872 25.9317 7.496 26.3477 8.248V5.848H28.5557V19H26.3477V16.552C25.9157 17.32 25.2677 17.96 24.4037 18.472C23.5557 18.968 22.5637 19.216 21.4277 19.216C20.2597 19.216 19.2037 18.928 18.2597 18.352C17.3157 17.776 16.5717 16.968 16.0277 15.928C15.4837 14.888 15.2117 13.704 15.2117 12.376ZM26.3477 12.4C26.3477 11.408 26.1477 10.544 25.7477 9.808C25.3477 9.072 24.8037 8.512 24.1157 8.128C23.4437 7.728 22.6997 7.528 21.8837 7.528C21.0677 7.528 20.3237 7.72 19.6517 8.104C18.9797 8.488 18.4437 9.048 18.0437 9.784C17.6437 10.52 17.4437 11.384 17.4437 12.376C17.4437 13.384 17.6437 14.264 18.0437 15.016C18.4437 15.752 18.9797 16.32 19.6517 16.72C20.3237 17.104 21.0677 17.296 21.8837 17.296C22.6997 17.296 23.4437 17.104 24.1157 16.72C24.8037 16.32 25.3477 15.752 25.7477 15.016C26.1477 14.264 26.3477 13.392 26.3477 12.4ZM34.4304 8.296C34.8784 7.512 35.5344 6.872 36.3984 6.376C37.2624 5.88 38.2464 5.632 39.3504 5.632C40.5344 5.632 41.5984 5.912 42.5424 6.472C43.4864 7.032 44.2304 7.824 44.7744 8.848C45.3184 9.856 45.5904 11.032 45.5904 12.376C45.5904 13.704 45.3184 14.888 44.7744 15.928C44.2304 16.968 43.4784 17.776 42.5184 18.352C41.5744 18.928 40.5184 19.216 39.3504 19.216C38.2144 19.216 37.2144 18.968 36.3504 18.472C35.5024 17.976 34.8624 17.344 34.4304 16.576V19H32.2464V1.24H34.4304V8.296ZM43.3584 12.376C43.3584 11.384 43.1584 10.52 42.7584 9.784C42.3584 9.048 41.8144 8.488 41.1264 8.104C40.4544 7.72 39.7104 7.528 38.8944 7.528C38.0944 7.528 37.3504 7.728 36.6624 8.128C35.9904 8.512 35.4464 9.08 35.0304 9.832C34.6304 10.568 34.4304 11.424 34.4304 12.4C34.4304 13.392 34.6304 14.264 35.0304 15.016C35.4464 15.752 35.9904 16.32 36.6624 16.72C37.3504 17.104 38.0944 17.296 38.8944 17.296C39.7104 17.296 40.4544 17.104 41.1264 16.72C41.8144 16.32 42.3584 15.752 42.7584 15.016C43.1584 14.264 43.3584 13.384 43.3584 12.376Z" fill="black"/>
<path d="M50.6492 17.224H56.5052V19H48.4652V2.272H50.6492V17.224ZM59.9526 3.712C59.5366 3.712 59.1846 3.568 58.8966 3.28C58.6086 2.992 58.4646 2.64 58.4646 2.224C58.4646 1.808 58.6086 1.456 58.8966 1.168C59.1846 0.879999 59.5366 0.735999 59.9526 0.735999C60.3526 0.735999 60.6886 0.879999 60.9606 1.168C61.2486 1.456 61.3926 1.808 61.3926 2.224C61.3926 2.64 61.2486 2.992 60.9606 3.28C60.6886 3.568 60.3526 3.712 59.9526 3.712ZM61.0086 5.848V19H58.8246V5.848H61.0086ZM69.3868 19.216C68.3788 19.216 67.4748 19.048 66.6748 18.712C65.8748 18.36 65.2428 17.88 64.7788 17.272C64.3148 16.648 64.0588 15.936 64.0108 15.136H66.2668C66.3308 15.792 66.6348 16.328 67.1788 16.744C67.7388 17.16 68.4668 17.368 69.3628 17.368C70.1948 17.368 70.8508 17.184 71.3308 16.816C71.8108 16.448 72.0508 15.984 72.0508 15.424C72.0508 14.848 71.7948 14.424 71.2828 14.152C70.7708 13.864 69.9788 13.584 68.9068 13.312C67.9308 13.056 67.1308 12.8 66.5068 12.544C65.8988 12.272 65.3708 11.88 64.9228 11.368C64.4908 10.84 64.2748 10.152 64.2748 9.304C64.2748 8.632 64.4748 8.016 64.8748 7.456C65.2748 6.896 65.8428 6.456 66.5788 6.136C67.3148 5.8 68.1548 5.632 69.0988 5.632C70.5548 5.632 71.7308 6 72.6268 6.736C73.5228 7.472 74.0028 8.48 74.0668 9.76H71.8828C71.8348 9.072 71.5548 8.52 71.0428 8.104C70.5468 7.688 69.8748 7.48 69.0268 7.48C68.2428 7.48 67.6188 7.648 67.1548 7.984C66.6908 8.32 66.4588 8.76 66.4588 9.304C66.4588 9.736 66.5948 10.096 66.8668 10.384C67.1548 10.656 67.5068 10.88 67.9228 11.056C68.3548 11.216 68.9468 11.4 69.6988 11.608C70.6428 11.864 71.4108 12.12 72.0028 12.376C72.5948 12.616 73.0988 12.984 73.5148 13.48C73.9468 13.976 74.1708 14.624 74.1868 15.424C74.1868 16.144 73.9868 16.792 73.5868 17.368C73.1868 17.944 72.6188 18.4 71.8828 18.736C71.1628 19.056 70.3308 19.216 69.3868 19.216ZM79.9339 7.648V15.4C79.9339 16.04 80.0699 16.496 80.3419 16.768C80.6139 17.024 81.0859 17.152 81.7579 17.152H83.3659V19H81.3979C80.1819 19 79.2699 18.72 78.6619 18.16C78.0539 17.6 77.7499 16.68 77.7499 15.4V7.648H76.0459V5.848H77.7499V2.536H79.9339V5.848H83.3659V7.648H79.9339ZM90.6681 19.216C89.6601 19.216 88.7561 19.048 87.9561 18.712C87.1561 18.36 86.5241 17.88 86.0601 17.272C85.5961 16.648 85.3401 15.936 85.2921 15.136H87.5481C87.6121 15.792 87.9161 16.328 88.4601 16.744C89.0201 17.16 89.7481 17.368 90.6441 17.368C91.4761 17.368 92.1321 17.184 92.6121 16.816C93.0921 16.448 93.3321 15.984 93.3321 15.424C93.3321 14.848 93.0761 14.424 92.5641 14.152C92.0521 13.864 91.2601 13.584 90.1881 13.312C89.2121 13.056 88.4121 12.8 87.7881 12.544C87.1801 12.272 86.6521 11.88 86.2041 11.368C85.7721 10.84 85.5561 10.152 85.5561 9.304C85.5561 8.632 85.7561 8.016 86.1561 7.456C86.5561 6.896 87.1241 6.456 87.8601 6.136C88.5961 5.8 89.4361 5.632 90.3801 5.632C91.8361 5.632 93.0121 6 93.9081 6.736C94.8041 7.472 95.2841 8.48 95.3481 9.76H93.1641C93.1161 9.072 92.8361 8.52 92.3241 8.104C91.8281 7.688 91.1561 7.48 90.3081 7.48C89.5241 7.48 88.9001 7.648 88.4361 7.984C87.9721 8.32 87.7401 8.76 87.7401 9.304C87.7401 9.736 87.8761 10.096 88.1481 10.384C88.4361 10.656 88.7881 10.88 89.2041 11.056C89.6361 11.216 90.2281 11.4 90.9801 11.608C91.9241 11.864 92.6921 12.12 93.2841 12.376C93.8761 12.616 94.3801 12.984 94.7961 13.48C95.2281 13.976 95.4521 14.624 95.4681 15.424C95.4681 16.144 95.2681 16.792 94.8681 17.368C94.4681 17.944 93.9001 18.4 93.1641 18.736C92.4441 19.056 91.6121 19.216 90.6681 19.216Z" fill="#5C8DF7"/>
</svg>
